Clip generation failed: Error: Command failed: ffmpeg -y -ss 1747 -i C:\Users\jgarr\Downloads\IMG_0479.MOV -t 15 -vf crop='min(iw,ih*1080/1350)':'min(ih,iw*1350/1080)':(iw-min(iw,ih*1080/1350))/2:(ih-min(ih,iw*1350/1080))/2,scale=1080:1350 -c:v libx264 -profile:v high -level:v 4.0 -pix_fmt yuv420p -c:a aac -b:a 128k -preset fast -movflags +faststart C:\DJ-Clip-Finder\clips\IMG_0479_29m10s_15s.mp4 ffmpeg version 2026-03-09-git-9b7439c31b-full_build-www.gyan.dev Copyright (c) 2000-2026 the FFmpeg developers built with gcc 15.2.0 (Rev11, Built by MSYS2 project) configuration: --enable-gpl --enable-version3 --enable-static --disable-w32threads --disable-autodetect --enable-cairo --enable-fontconfig --enable-iconv --enable-gnutls --enable-lcms2 --enable-libxml2 --enable-gmp --enable-bzlib --enable-lzma --enable-libsnappy --enable-zlib --enable-librist --enable-libsrt --enable-libssh --enable-libzmq --enable-avisynth --enable-libbluray --enable-libcaca --enable-libdvdnav --enable-libdvdread --enable-sdl2 --enable-libaribb24 --enable-libaribcaption --enable-libdav1d --enable-libdavs2 --enable-libopenjpeg --enable-libquirc --enable-libuavs3d --enable-libxevd --enable-libzvbi --enable-liboapv --enable-libqrencode --enable-librav1e --enable-libsvtav1 --enable-libvvenc --enable-libwebp --enable-libx264 --enable-libx265 --enable-libxavs2 --enable-libxeve --enable-libxvid --enable-libaom --enable-libjxl --enable-libsvtjpegxs --enable-libvpx --enable-mediafoundation --enable-libass --enable-frei0r --enable-libfreetype --enable-libfribidi --enable-libharfbuzz --enable-liblensfun --enable-libvidstab --enable-libvmaf --enable-libzimg --enable-amf --enable-cuda-llvm --enable-cuvid --enable-dxva2 --enable-d3d11va --enable-d3d12va --enable-ffnvcodec --enable-libvpl --enable-nvdec --enable-nvenc --enable-vaapi --enable-libshaderc --enable-vulkan --enable-libplacebo --enable-opencl --enable-libcdio --enable-openal --enable-libgme --enable-libmodplug --enable-libopenmpt --enable-libopencore-amrwb --enable-libmp3lame --enable-libshine --enable-libtheora --enable-libtwolame --enable-libvo-amrwbenc --enable-libcodec2 --enable-libilbc --enable-libgsm --enable-liblc3 --enable-libopencore-amrnb --enable-libopus --enable-libspeex --enable-libvorbis --enable-ladspa --enable-libbs2b --enable-libflite --enable-libmysofa --enable-librubberband --enable-libsoxr --enable-chromaprint --enable-whisper libavutil 60. 27.100 / 60. 27.100 libavcodec 62. 29.100 / 62. 29.100 libavformat 62. 13.100 / 62. 13.100 libavdevice 62. 4.100 / 62. 4.100 libavfilter 11. 15.100 / 11. 15.100 libswscale 9. 6.100 / 9. 6.100 libswresample 6. 4.100 / 6. 4.100 Input #0, mov,mp4,m4a,3gp,3g2,mj2, from 'C:\Users\jgarr\Downloads\IMG_0479.MOV': Metadata: major_brand : qt minor_version : 0 compatible_brands: qt creation_time : 2026-03-03T08:59:09.000000Z com.apple.quicktime.location.accuracy.horizontal: 30.945861 com.apple.quicktime.full-frame-rate-playback-intent: 0 com.apple.quicktime.location.ISO6709: -33.9399+151.0995-073.643/ com.apple.quicktime.make: Apple com.apple.quicktime.model: iPhone 12 Pro Max com.apple.quicktime.software: 26.3 com.apple.quicktime.creationdate: 2026-03-03T19:59:09+1100 Duration: 01:01:27.34, start: 0.000000, bitrate: 13138 kb/s Stream #0:0[0x1](und): Video: hevc (Main 10) (hvc1 / 0x31637668), yuv420p10le(tv, bt2020nc/bt2020/arib-std-b67), 1920x1080, 12889 kb/s, 29.99 fps, 29.97 tbr, 600 tbn (default) Metadata: creation_time : 2026-03-03T08:59:09.000000Z handler_name : Core Media Video vendor_id : [0][0][0][0] encoder : HEVC Side data: DOVI configuration record: version: 1.0, profile: 8, level: 4, rpu flag: 1, el flag: 0, bl flag: 1, compatibility id: 4, compression: 0 Display Matrix: rotation of -90.00 degrees Ambient viewing environment: ambient_illuminance=314.000000, ambient_light_x=0.312700, ambient_light_y=0.329000 Stream #0:1[0x2](und): Audio: aac (LC) (mp4a / 0x6134706D), 48000 Hz, stereo, fltp, 162 kb/s (default) Metadata: creation_time : 2026-03-03T08:59:09.000000Z handler_name : Core Media Audio vendor_id : [0][0][0][0] Stream #0:2[0x3](und): Data: none (mebx / 0x7862656D) (default) Metadata: creation_time : 2026-03-03T08:59:09.000000Z handler_name : Core Media Metadata Stream #0:3[0x4](und): Data: none (mebx / 0x7862656D), 23 kb/s (default) Metadata: creation_time : 2026-03-03T08:59:09.000000Z handler_name : Core Media Metadata Stream #0:4[0x5](und): Data: none (mebx / 0x7862656D), 42 kb/s (default) Metadata: creation_time : 2026-03-03T08:59:09.000000Z handler_name : Core Media Metadata Stream #0:5[0x6](und): Data: none (mebx / 0x7862656D), 2 kb/s (default) Metadata: creation_time : 2026-03-03T08:59:09.000000Z handler_name : Core Media Metadata Stream #0:6[0x7](und): Data: none (mebx / 0x7862656D) (default) Metadata: creation_time : 2026-03-03T08:59:09.000000Z handler_name : Core Media Metadata [AVFilterGraph @ 0000022979393280] No such filter: 'ih*1080/1350))/2:(ih-min(ih' Error opening output file C:\DJ-Clip-Finder\clips\IMG_0479_29m10s_15s.mp4. Error opening output files: Filter not found